{
	"asset":{
		"generator":"Khronos glTF Blender I/O v4.0.44",
		"version":"2.0"
	},
	"scene":0,
	"scenes":[
		{
			"name":"Scene",
			"nodes":[
				20,
				21,
				22,
				23,
				24,
				25,
				26,
				27,
				28,
				29,
				30,
				31,
				32,
				33,
				34,
				35,
				36,
				37
			]
		}
	],
	"nodes":[
		{
			"name":"amelia_37",
			"rotation":[
				0,
				0.418561726808548,
				0,
				0.9081883430480957
			],
			"translation":[
				-0.1965329945087433,
				0.9014328122138977,
				0
			]
		},
		{
			"name":"isopod.001_48"
		},
		{
			"name":"isopod_47"
		},
		{
			"name":"spine.002_38",
			"rotation":[
				7.105427357601002e-15,
				0,
				-4.69406771781489e-22,
				1
			],
			"translation":[
				-2.786425333089343e-14,
				1.000001072883606,
				-1.1240001640544506e-07
			]
		},
		{
			"children":[
				3
			],
			"name":"spine.001_39",
			"rotation":[
				0.7071066498756409,
				-6.548670228312403e-08,
				-4.128344954779095e-08,
				0.70710688829422
			],
			"translation":[
				2.961513480737206e-15,
				0.8640915751457214,
				8.67152607497701e-07
			]
		},
		{
			"name":"Bone.003_40",
			"rotation":[
				0.7071066498756409,
				-8.792516241723069e-15,
				0.70710688829422,
				1.8841104417193118e-14
			],
			"scale":[
				1,
				0.9999998807907104,
				0.9999998807907104
			],
			"translation":[
				-4.279732221824234e-14,
				0.6936972737312317,
				-2.877357019315241e-06
			]
		},
		{
			"name":"antenna_L_41",
			"rotation":[
				-3.2111948655710876e-08,
				7.889010333883562e-08,
				-0.21752110123634338,
				0.9760556817054749
			],
			"scale":[
				1,
				0.9999999403953552,
				1
			],
			"translation":[
				0.2697710692882538,
				0.33400264382362366,
				-0.43954649567604065
			]
		},
		{
			"name":"antenna_R_42",
			"rotation":[
				-3.211194155028352e-08,
				-7.889013176054505e-08,
				0.21752110123634338,
				0.9760556817054749
			],
			"scale":[
				1,
				0.9999999403953552,
				1
			],
			"translation":[
				-0.2697710692882538,
				0.33400264382362366,
				-0.43954649567604065
			]
		},
		{
			"children":[
				6,
				7
			],
			"name":"head_43",
			"rotation":[
				1.1083486128882214e-08,
				4.801424896235841e-15,
				1.7763570511584873e-15,
				1
			],
			"translation":[
				1.6940658945086007e-20,
				0.6936972737312317,
				-9.104037417273503e-07
			]
		},
		{
			"children":[
				5,
				8
			],
			"name":"spine_44",
			"rotation":[
				-0.7071066498756409,
				-1.2101613933168665e-08,
				-1.2101621926774442e-08,
				0.70710688829422
			],
			"scale":[
				1,
				0.9999999403953552,
				0.9999999403953552
			],
			"translation":[
				2.961513480737206e-15,
				0.8640915751457214,
				8.67152607497701e-07
			]
		},
		{
			"name":"leg2_45",
			"rotation":[
				-0.06771593540906906,
				0.07447876036167145,
				-0.8109848499298096,
				0.5763428807258606
			],
			"scale":[
				1,
				1,
				0.9999999403953552
			],
			"translation":[
				-2.0488451824007825e-08,
				0.8640915751457214,
				8.67152607497701e-07
			]
		},
		{
			"name":"leg1_46",
			"rotation":[
				0.21930013597011566,
				-0.17450262606143951,
				-0.7465567588806152,
				0.6034147143363953
			],
			"scale":[
				1,
				0.9999998807907104,
				1.0000001192092896
			],
			"translation":[
				3.1522577881304414e-09,
				0.8640915751457214,
				8.67152607497701e-07
			]
		},
		{
			"children":[
				4,
				9,
				10,
				11
			],
			"name":"GLTF_created_1_rootJoint",
			"rotation":[
				-8.557138997389302e-09,
				1.7114272665708086e-08,
				-2.928984345068207e-16,
				1
			],
			"translation":[
				0,
				0,
				9.5367431640625e-07
			]
		},
		{
			"children":[
				1,
				2,
				12
			],
			"name":"GLTF_created_1"
		},
		{
			"children":[
				13
			],
			"name":"isopod.002_49",
			"rotation":[
				0.70710688829422,
				0,
				0,
				0.7071066498756409
			],
			"scale":[
				0.0731188952922821,
				0.0731189027428627,
				0.0731189027428627
			],
			"translation":[
				0,
				0.8640916347503662,
				0
			]
		},
		{
			"mesh":0,
			"name":"Object_4"
		},
		{
			"mesh":1,
			"name":"Object_5"
		},
		{
			"children":[
				15,
				16
			],
			"name":"pasokon_1"
		},
		{
			"children":[
				0,
				14,
				17
			],
			"name":"GLTF_SceneRootNode",
			"rotation":[
				0.70710688829422,
				0,
				0,
				0.7071066498756409
			]
		},
		{
			"children":[
				18
			],
			"name":"root"
		},
		{
			"children":[
				19
			],
			"name":"Sketchfab_model",
			"rotation":[
				0.7071066498756409,
				0,
				0,
				0.70710688829422
			],
			"scale":[
				-1,
				-1.0000001192092896,
				-1.0000001192092896
			]
		},
		{
			"name":"Object_37",
			"rotation":[
				1,
				0,
				0,
				0
			],
			"scale":[
				-1,
				-1,
				-1
			]
		},
		{
			"name":"armies_21",
			"rotation":[
				1,
				0,
				0,
				0
			],
			"scale":[
				-1,
				-1,
				-1
			]
		},
		{
			"name":"armies.001_22",
			"rotation":[
				1,
				0,
				0,
				0
			],
			"scale":[
				-1,
				-1,
				-1
			]
		},
		{
			"name":"bode_23",
			"rotation":[
				1,
				0,
				0,
				0
			],
			"scale":[
				-1,
				-1,
				-1
			]
		},
		{
			"name":"bode.001_24",
			"rotation":[
				1,
				0,
				0,
				0
			],
			"scale":[
				-1,
				-1,
				-1
			]
		},
		{
			"name":"Cylinder.003_25",
			"rotation":[
				1,
				0,
				0,
				0
			],
			"scale":[
				-1,
				-1,
				-1
			]
		},
		{
			"name":"Cylinder.004_26",
			"rotation":[
				1,
				0,
				0,
				0
			],
			"scale":[
				-1,
				-1,
				-1
			]
		},
		{
			"name":"eyea_27",
			"rotation":[
				1,
				0,
				0,
				0
			],
			"scale":[
				-1,
				-1,
				-1
			]
		},
		{
			"name":"feets_28",
			"rotation":[
				1,
				0,
				0,
				0
			],
			"scale":[
				-1,
				-1,
				-1
			]
		},
		{
			"name":"feets.001_29",
			"rotation":[
				1,
				0,
				0,
				0
			],
			"scale":[
				-1,
				-1,
				-1
			]
		},
		{
			"name":"guitar_30",
			"rotation":[
				1,
				0,
				0,
				0
			],
			"scale":[
				-1,
				-1,
				-1
			]
		},
		{
			"name":"guitar.001_31",
			"rotation":[
				1,
				0,
				0,
				0
			],
			"scale":[
				-1,
				-1,
				-1
			]
		},
		{
			"name":"hair_32",
			"rotation":[
				1,
				0,
				0,
				0
			],
			"scale":[
				-1,
				-1,
				-1
			]
		},
		{
			"name":"hairoutline_33",
			"rotation":[
				1,
				0,
				0,
				0
			],
			"scale":[
				-1,
				-1,
				-1
			]
		},
		{
			"name":"mouf_34",
			"rotation":[
				1,
				0,
				0,
				0
			],
			"scale":[
				-1,
				-1,
				-1
			]
		},
		{
			"name":"nogging_35",
			"rotation":[
				1,
				0,
				0,
				0
			],
			"scale":[
				-1,
				-1,
				-1
			]
		},
		{
			"name":"nogging.001_36",
			"rotation":[
				1,
				0,
				0,
				0
			],
			"scale":[
				-1,
				-1,
				-1
			]
		}
	],
	"animations":[
		{
			"channels":[
				{
					"sampler":0,
					"target":{
						"node":12,
						"path":"translation"
					}
				},
				{
					"sampler":1,
					"target":{
						"node":12,
						"path":"rotation"
					}
				},
				{
					"sampler":2,
					"target":{
						"node":12,
						"path":"scale"
					}
				},
				{
					"sampler":3,
					"target":{
						"node":4,
						"path":"translation"
					}
				},
				{
					"sampler":4,
					"target":{
						"node":4,
						"path":"rotation"
					}
				},
				{
					"sampler":5,
					"target":{
						"node":4,
						"path":"scale"
					}
				},
				{
					"sampler":6,
					"target":{
						"node":3,
						"path":"translation"
					}
				},
				{
					"sampler":7,
					"target":{
						"node":3,
						"path":"rotation"
					}
				},
				{
					"sampler":8,
					"target":{
						"node":3,
						"path":"scale"
					}
				},
				{
					"sampler":9,
					"target":{
						"node":9,
						"path":"translation"
					}
				},
				{
					"sampler":10,
					"target":{
						"node":9,
						"path":"rotation"
					}
				},
				{
					"sampler":11,
					"target":{
						"node":9,
						"path":"scale"
					}
				},
				{
					"sampler":12,
					"target":{
						"node":5,
						"path":"translation"
					}
				},
				{
					"sampler":13,
					"target":{
						"node":5,
						"path":"rotation"
					}
				},
				{
					"sampler":14,
					"target":{
						"node":5,
						"path":"scale"
					}
				},
				{
					"sampler":15,
					"target":{
						"node":8,
						"path":"translation"
					}
				},
				{
					"sampler":16,
					"target":{
						"node":8,
						"path":"rotation"
					}
				},
				{
					"sampler":17,
					"target":{
						"node":8,
						"path":"scale"
					}
				},
				{
					"sampler":18,
					"target":{
						"node":6,
						"path":"translation"
					}
				},
				{
					"sampler":19,
					"target":{
						"node":6,
						"path":"rotation"
					}
				},
				{
					"sampler":20,
					"target":{
						"node":6,
						"path":"scale"
					}
				},
				{
					"sampler":21,
					"target":{
						"node":7,
						"path":"translation"
					}
				},
				{
					"sampler":22,
					"target":{
						"node":7,
						"path":"rotation"
					}
				},
				{
					"sampler":23,
					"target":{
						"node":7,
						"path":"scale"
					}
				},
				{
					"sampler":24,
					"target":{
						"node":10,
						"path":"translation"
					}
				},
				{
					"sampler":25,
					"target":{
						"node":10,
						"path":"rotation"
					}
				},
				{
					"sampler":26,
					"target":{
						"node":10,
						"path":"scale"
					}
				},
				{
					"sampler":27,
					"target":{
						"node":11,
						"path":"translation"
					}
				},
				{
					"sampler":28,
					"target":{
						"node":11,
						"path":"rotation"
					}
				},
				{
					"sampler":29,
					"target":{
						"node":11,
						"path":"scale"
					}
				}
			],
			"name":"Animation",
			"samplers":[
				{
					"input":8,
					"interpolation":"STEP",
					"output":9
				},
				{
					"input":8,
					"interpolation":"STEP",
					"output":10
				},
				{
					"input":8,
					"interpolation":"STEP",
					"output":11
				},
				{
					"input":8,
					"interpolation":"STEP",
					"output":12
				},
				{
					"input":13,
					"interpolation":"LINEAR",
					"output":14
				},
				{
					"input":8,
					"interpolation":"LINEAR",
					"output":15
				},
				{
					"input":8,
					"interpolation":"LINEAR",
					"output":16
				},
				{
					"input":13,
					"interpolation":"LINEAR",
					"output":17
				},
				{
					"input":8,
					"interpolation":"LINEAR",
					"output":18
				},
				{
					"input":8,
					"interpolation":"STEP",
					"output":19
				},
				{
					"input":13,
					"interpolation":"LINEAR",
					"output":20
				},
				{
					"input":8,
					"interpolation":"LINEAR",
					"output":21
				},
				{
					"input":8,
					"interpolation":"LINEAR",
					"output":22
				},
				{
					"input":8,
					"interpolation":"LINEAR",
					"output":23
				},
				{
					"input":8,
					"interpolation":"LINEAR",
					"output":24
				},
				{
					"input":8,
					"interpolation":"LINEAR",
					"output":25
				},
				{
					"input":13,
					"interpolation":"LINEAR",
					"output":26
				},
				{
					"input":8,
					"interpolation":"LINEAR",
					"output":27
				},
				{
					"input":8,
					"interpolation":"LINEAR",
					"output":28
				},
				{
					"input":13,
					"interpolation":"LINEAR",
					"output":29
				},
				{
					"input":8,
					"interpolation":"STEP",
					"output":30
				},
				{
					"input":8,
					"interpolation":"LINEAR",
					"output":31
				},
				{
					"input":13,
					"interpolation":"LINEAR",
					"output":32
				},
				{
					"input":8,
					"interpolation":"LINEAR",
					"output":33
				},
				{
					"input":8,
					"interpolation":"STEP",
					"output":34
				},
				{
					"input":13,
					"interpolation":"LINEAR",
					"output":35
				},
				{
					"input":8,
					"interpolation":"LINEAR",
					"output":36
				},
				{
					"input":8,
					"interpolation":"STEP",
					"output":37
				},
				{
					"input":13,
					"interpolation":"LINEAR",
					"output":38
				},
				{
					"input":8,
					"interpolation":"LINEAR",
					"output":39
				}
			]
		}
	],
	"materials":[
		{
			"emissiveFactor":[
				0.5643160939216614,
				0.5643160939216614,
				0.5643160939216614
			],
			"emissiveTexture":{
				"index":0
			},
			"name":"pasokon",
			"pbrMetallicRoughness":{
				"baseColorFactor":[
					0.5367652773857117,
					0.5367652773857117,
					0.5367652773857117,
					1
				],
				"baseColorTexture":{
					"index":1
				},
				"metallicFactor":0,
				"roughnessFactor":0
			}
		},
		{
			"emissiveFactor":[
				0.6251177787780762,
				0.6251177787780762,
				0.6251177787780762
			],
			"emissiveTexture":{
				"index":2
			},
			"name":"terrarium1",
			"pbrMetallicRoughness":{
				"baseColorFactor":[
					0.5063644051551819,
					0.5063644051551819,
					0.5063644051551819,
					1
				],
				"baseColorTexture":{
					"index":3
				},
				"metallicFactor":0
			}
		}
	],
	"meshes":[
		{
			"name":"Object_0",
			"primitives":[
				{
					"attributes":{
						"POSITION":0,
						"NORMAL":1,
						"TEXCOORD_0":2
					},
					"indices":3,
					"material":0
				}
			]
		},
		{
			"name":"Object_1",
			"primitives":[
				{
					"attributes":{
						"POSITION":4,
						"NORMAL":5,
						"TEXCOORD_0":6
					},
					"indices":7,
					"material":1
				}
			]
		}
	],
	"textures":[
		{
			"sampler":0,
			"source":0
		},
		{
			"sampler":0,
			"source":0
		},
		{
			"sampler":0,
			"source":1
		},
		{
			"sampler":0,
			"source":1
		}
	],
	"images":[
		{
			"mimeType":"image/png",
			"name":"pasokon_baseColor",
			"uri":"Textures/pasokon_baseColor.png"
		},
		{
			"mimeType":"image/png",
			"name":"terrarium1_baseColor",
			"uri":"Textures/terrarium1_baseColor.png"
		}
	],
	"skins":[
		{
			"inverseBindMatrices":40,
			"joints":[
				12,
				4,
				3,
				9,
				5,
				8,
				6,
				7,
				10,
				11
			],
			"name":"GLTF_created_1"
		}
	],
	"accessors":[
		{
			"bufferView":0,
			"componentType":5126,
			"count":6782,
			"max":[
				1.8186614513397217,
				2.2764387130737305,
				1.601987361907959
			],
			"min":[
				-1.215928316116333,
				-0.07248200476169586,
				-1.6160364151000977
			],
			"type":"VEC3"
		},
		{
			"bufferView":1,
			"componentType":5126,
			"count":6782,
			"type":"VEC3"
		},
		{
			"bufferView":2,
			"componentType":5126,
			"count":6782,
			"type":"VEC2"
		},
		{
			"bufferView":3,
			"componentType":5123,
			"count":17214,
			"type":"SCALAR"
		},
		{
			"bufferView":4,
			"componentType":5126,
			"count":14795,
			"max":[
				1.0126206874847412,
				2.0132369995117188,
				0.4165894389152527
			],
			"min":[
				-0.9624566435813904,
				0.6582717299461365,
				-1.1862610578536987
			],
			"type":"VEC3"
		},
		{
			"bufferView":5,
			"componentType":5126,
			"count":14795,
			"type":"VEC3"
		},
		{
			"bufferView":6,
			"componentType":5126,
			"count":14795,
			"type":"VEC2"
		},
		{
			"bufferView":7,
			"componentType":5123,
			"count":46707,
			"type":"SCALAR"
		},
		{
			"bufferView":8,
			"componentType":5126,
			"count":2,
			"max":[
				9
			],
			"min":[
				0
			],
			"type":"SCALAR"
		},
		{
			"bufferView":9,
			"componentType":5126,
			"count":2,
			"type":"VEC3"
		},
		{
			"bufferView":10,
			"componentType":5126,
			"count":2,
			"type":"VEC4"
		},
		{
			"bufferView":11,
			"componentType":5126,
			"count":2,
			"type":"VEC3"
		},
		{
			"bufferView":12,
			"componentType":5126,
			"count":2,
			"type":"VEC3"
		},
		{
			"bufferView":13,
			"componentType":5126,
			"count":217,
			"max":[
				9
			],
			"min":[
				0
			],
			"type":"SCALAR"
		},
		{
			"bufferView":14,
			"componentType":5126,
			"count":217,
			"type":"VEC4"
		},
		{
			"bufferView":15,
			"componentType":5126,
			"count":2,
			"type":"VEC3"
		},
		{
			"bufferView":16,
			"componentType":5126,
			"count":2,
			"type":"VEC3"
		},
		{
			"bufferView":17,
			"componentType":5126,
			"count":217,
			"type":"VEC4"
		},
		{
			"bufferView":18,
			"componentType":5126,
			"count":2,
			"type":"VEC3"
		},
		{
			"bufferView":19,
			"componentType":5126,
			"count":2,
			"type":"VEC3"
		},
		{
			"bufferView":20,
			"componentType":5126,
			"count":217,
			"type":"VEC4"
		},
		{
			"bufferView":21,
			"componentType":5126,
			"count":2,
			"type":"VEC3"
		},
		{
			"bufferView":22,
			"componentType":5126,
			"count":2,
			"type":"VEC3"
		},
		{
			"bufferView":23,
			"componentType":5126,
			"count":2,
			"type":"VEC4"
		},
		{
			"bufferView":24,
			"componentType":5126,
			"count":2,
			"type":"VEC3"
		},
		{
			"bufferView":25,
			"componentType":5126,
			"count":2,
			"type":"VEC3"
		},
		{
			"bufferView":26,
			"componentType":5126,
			"count":217,
			"type":"VEC4"
		},
		{
			"bufferView":27,
			"componentType":5126,
			"count":2,
			"type":"VEC3"
		},
		{
			"bufferView":28,
			"componentType":5126,
			"count":2,
			"type":"VEC3"
		},
		{
			"bufferView":29,
			"componentType":5126,
			"count":217,
			"type":"VEC4"
		},
		{
			"bufferView":30,
			"componentType":5126,
			"count":2,
			"type":"VEC3"
		},
		{
			"bufferView":31,
			"componentType":5126,
			"count":2,
			"type":"VEC3"
		},
		{
			"bufferView":32,
			"componentType":5126,
			"count":217,
			"type":"VEC4"
		},
		{
			"bufferView":33,
			"componentType":5126,
			"count":2,
			"type":"VEC3"
		},
		{
			"bufferView":34,
			"componentType":5126,
			"count":2,
			"type":"VEC3"
		},
		{
			"bufferView":35,
			"componentType":5126,
			"count":217,
			"type":"VEC4"
		},
		{
			"bufferView":36,
			"componentType":5126,
			"count":2,
			"type":"VEC3"
		},
		{
			"bufferView":37,
			"componentType":5126,
			"count":2,
			"type":"VEC3"
		},
		{
			"bufferView":38,
			"componentType":5126,
			"count":217,
			"type":"VEC4"
		},
		{
			"bufferView":39,
			"componentType":5126,
			"count":2,
			"type":"VEC3"
		},
		{
			"bufferView":40,
			"componentType":5126,
			"count":10,
			"type":"MAT4"
		}
	],
	"bufferViews":[
		{
			"buffer":0,
			"byteLength":81384,
			"byteOffset":0,
			"target":34962
		},
		{
			"buffer":0,
			"byteLength":81384,
			"byteOffset":81384,
			"target":34962
		},
		{
			"buffer":0,
			"byteLength":54256,
			"byteOffset":162768,
			"target":34962
		},
		{
			"buffer":0,
			"byteLength":34428,
			"byteOffset":217024,
			"target":34963
		},
		{
			"buffer":0,
			"byteLength":177540,
			"byteOffset":251452,
			"target":34962
		},
		{
			"buffer":0,
			"byteLength":177540,
			"byteOffset":428992,
			"target":34962
		},
		{
			"buffer":0,
			"byteLength":118360,
			"byteOffset":606532,
			"target":34962
		},
		{
			"buffer":0,
			"byteLength":93414,
			"byteOffset":724892,
			"target":34963
		},
		{
			"buffer":0,
			"byteLength":8,
			"byteOffset":818308
		},
		{
			"buffer":0,
			"byteLength":24,
			"byteOffset":818316
		},
		{
			"buffer":0,
			"byteLength":32,
			"byteOffset":818340
		},
		{
			"buffer":0,
			"byteLength":24,
			"byteOffset":818372
		},
		{
			"buffer":0,
			"byteLength":24,
			"byteOffset":818396
		},
		{
			"buffer":0,
			"byteLength":868,
			"byteOffset":818420
		},
		{
			"buffer":0,
			"byteLength":3472,
			"byteOffset":819288
		},
		{
			"buffer":0,
			"byteLength":24,
			"byteOffset":822760
		},
		{
			"buffer":0,
			"byteLength":24,
			"byteOffset":822784
		},
		{
			"buffer":0,
			"byteLength":3472,
			"byteOffset":822808
		},
		{
			"buffer":0,
			"byteLength":24,
			"byteOffset":826280
		},
		{
			"buffer":0,
			"byteLength":24,
			"byteOffset":826304
		},
		{
			"buffer":0,
			"byteLength":3472,
			"byteOffset":826328
		},
		{
			"buffer":0,
			"byteLength":24,
			"byteOffset":829800
		},
		{
			"buffer":0,
			"byteLength":24,
			"byteOffset":829824
		},
		{
			"buffer":0,
			"byteLength":32,
			"byteOffset":829848
		},
		{
			"buffer":0,
			"byteLength":24,
			"byteOffset":829880
		},
		{
			"buffer":0,
			"byteLength":24,
			"byteOffset":829904
		},
		{
			"buffer":0,
			"byteLength":3472,
			"byteOffset":829928
		},
		{
			"buffer":0,
			"byteLength":24,
			"byteOffset":833400
		},
		{
			"buffer":0,
			"byteLength":24,
			"byteOffset":833424
		},
		{
			"buffer":0,
			"byteLength":3472,
			"byteOffset":833448
		},
		{
			"buffer":0,
			"byteLength":24,
			"byteOffset":836920
		},
		{
			"buffer":0,
			"byteLength":24,
			"byteOffset":836944
		},
		{
			"buffer":0,
			"byteLength":3472,
			"byteOffset":836968
		},
		{
			"buffer":0,
			"byteLength":24,
			"byteOffset":840440
		},
		{
			"buffer":0,
			"byteLength":24,
			"byteOffset":840464
		},
		{
			"buffer":0,
			"byteLength":3472,
			"byteOffset":840488
		},
		{
			"buffer":0,
			"byteLength":24,
			"byteOffset":843960
		},
		{
			"buffer":0,
			"byteLength":24,
			"byteOffset":843984
		},
		{
			"buffer":0,
			"byteLength":3472,
			"byteOffset":844008
		},
		{
			"buffer":0,
			"byteLength":24,
			"byteOffset":847480
		},
		{
			"buffer":0,
			"byteLength":640,
			"byteOffset":847504
		}
	],
	"samplers":[
		{
			"magFilter":9728,
			"minFilter":9984
		}
	],
	"buffers":[
		{
			"byteLength":848144,
			"uri":"pc%20portolio.bin"
		}
	]
}
