<svg width="217" height="26" viewBox="0 0 217 26" fill="none" xmlns="http://www.w3.org/2000/svg">
<path d="M8.45 25.654C6.89 25.654 5.54667 25.3507 4.42 24.744C3.29333 24.1373 2.418 23.2707 1.794 22.144C1.17 21.0173 0.858 19.674 0.858 18.114V9.3C0.858 7.74 1.15267 6.39667 1.742 5.27C2.33133 4.14333 3.172 3.27667 4.264 2.67C5.356 2.06333 6.66467 1.76 8.19 1.76C9.57667 1.76 10.764 2.02867 11.752 2.566C12.7573 3.086 13.5287 3.82267 14.066 4.776C14.6033 5.712 14.872 6.804 14.872 8.052V19.31H12.402L12.558 17.88H11.778L12.168 17.204C12.168 17.8973 11.908 18.4693 11.388 18.92C10.8853 19.3533 10.2093 19.57 9.36 19.57C8.268 19.57 7.41867 19.206 6.812 18.478C6.22267 17.75 5.928 16.7187 5.928 15.384V12.42C5.928 11.0853 6.22267 10.054 6.812 9.326C7.41867 8.598 8.268 8.234 9.36 8.234C10.2093 8.234 10.8853 8.45067 11.388 8.884C11.908 9.31733 12.168 9.88933 12.168 10.6L11.804 10.08H12.584L12.168 8.312V8.052C12.168 7.272 12.012 6.58733 11.7 5.998C11.388 5.40867 10.9373 4.94933 10.348 4.62C9.75867 4.27333 9.03933 4.1 8.19 4.1C6.71667 4.1 5.57267 4.55933 4.758 5.478C3.96067 6.37933 3.562 7.65333 3.562 9.3V18.114C3.562 19.726 3.98667 20.974 4.836 21.858C5.70267 22.742 6.90733 23.184 8.45 23.184H10.27V25.654H8.45ZM10.4 17.594C11.024 17.594 11.4747 17.412 11.752 17.048C12.0293 16.684 12.168 16.0947 12.168 15.28V12.42C12.168 11.692 12.0207 11.146 11.726 10.782C11.4313 10.4007 10.9893 10.21 10.4 10.21C9.81067 10.21 9.36867 10.4007 9.074 10.782C8.77933 11.146 8.632 11.692 8.632 12.42V15.384C8.632 16.164 8.77933 16.7273 9.074 17.074C9.36867 17.4207 9.81067 17.594 10.4 17.594ZM26.4838 21.234C25.3918 21.234 24.4385 21.0607 23.6238 20.714C22.8092 20.3673 22.1678 19.8907 21.6998 19.284C21.2492 18.66 21.0065 17.932 20.9718 17.1H24.2218C24.2565 17.5507 24.4732 17.9147 24.8718 18.192C25.2878 18.4693 25.8252 18.608 26.4838 18.608H27.6278C28.4252 18.608 29.0232 18.452 29.4218 18.14C29.8205 17.828 30.0198 17.4033 30.0198 16.866C30.0198 16.3633 29.8378 15.9733 29.4738 15.696C29.1272 15.4013 28.5812 15.2107 27.8358 15.124L26.0678 14.864C24.4385 14.6387 23.2425 14.2053 22.4798 13.564C21.7172 12.9227 21.3358 11.9607 21.3358 10.678C21.3358 9.34333 21.7865 8.312 22.6878 7.584C23.5892 6.83867 24.9152 6.466 26.6658 6.466H27.6538C29.2485 6.466 30.5225 6.82133 31.4758 7.532C32.4292 8.24267 32.9405 9.196 33.0098 10.392H29.7598C29.7078 10.0107 29.4912 9.69867 29.1098 9.456C28.7458 9.21333 28.2605 9.092 27.6538 9.092H26.6658C25.9205 9.092 25.3745 9.23067 25.0278 9.508C24.6985 9.768 24.5338 10.158 24.5338 10.678C24.5338 11.1633 24.6812 11.5273 24.9758 11.77C25.2705 11.9953 25.7472 12.16 26.4058 12.264L28.2518 12.524C29.9505 12.7667 31.1985 13.226 31.9958 13.902C32.8105 14.5607 33.2178 15.54 33.2178 16.84C33.2178 18.2267 32.7412 19.31 31.7878 20.09C30.8518 20.8527 29.4652 21.234 27.6278 21.234H26.4838ZM36.7957 21V18.036H41.7877V9.638H37.4457V6.7H44.9077V18.036H49.3277V21H36.7957ZM43.0877 4.308C42.429 4.308 41.909 4.14333 41.5277 3.814C41.1464 3.46733 40.9557 3.008 40.9557 2.436C40.9557 1.864 41.1464 1.41333 41.5277 1.084C41.909 0.737333 42.429 0.564 43.0877 0.564C43.7464 0.564 44.2664 0.737333 44.6477 1.084C45.029 1.41333 45.2197 1.864 45.2197 2.436C45.2197 3.008 45.029 3.46733 44.6477 3.814C44.2664 4.14333 43.7464 4.308 43.0877 4.308ZM58.2355 21.26C57.0222 21.26 55.9649 21.026 55.0635 20.558C54.1622 20.09 53.4602 19.44 52.9575 18.608C52.4722 17.7587 52.2295 16.7707 52.2295 15.644V12.056C52.2295 10.9293 52.4722 9.95 52.9575 9.118C53.4602 8.26867 54.1622 7.61 55.0635 7.142C55.9649 6.674 57.0222 6.44 58.2355 6.44C59.4315 6.44 60.4715 6.674 61.3555 7.142C62.2569 7.61 62.9502 8.26867 63.4355 9.118C63.9382 9.95 64.1895 10.9293 64.1895 12.056V14.63H55.3755V15.644C55.3755 16.6493 55.6182 17.412 56.1035 17.932C56.5889 18.4347 57.3082 18.686 58.2615 18.686C58.9895 18.686 59.5789 18.5647 60.0295 18.322C60.4802 18.062 60.7662 17.6893 60.8875 17.204H64.0855C63.8429 18.4347 63.1842 19.4227 62.1095 20.168C61.0522 20.896 59.7609 21.26 58.2355 21.26ZM61.0435 12.81V12.03C61.0435 11.042 60.8095 10.288 60.3415 9.768C59.8735 9.23067 59.1715 8.962 58.2355 8.962C57.2995 8.962 56.5889 9.23067 56.1035 9.768C55.6182 10.3053 55.3755 11.068 55.3755 12.056V12.602L61.2775 12.55L61.0435 12.81ZM83.5912 21V2.02H86.8412V6.7L86.7632 9.43H87.6472L86.7632 10.184C86.7632 9.00533 87.1012 8.08667 87.7772 7.428C88.4706 6.76933 89.4152 6.44 90.6112 6.44C92.0152 6.44 93.1332 6.908 93.9652 7.844C94.8146 8.78 95.2392 10.0367 95.2392 11.614V21H91.9892V11.952C91.9892 11.0853 91.7639 10.418 91.3132 9.95C90.8626 9.482 90.2299 9.248 89.4152 9.248C88.6179 9.248 87.9852 9.49067 87.5172 9.976C87.0666 10.4613 86.8412 11.1547 86.8412 12.056V21H83.5912ZM103.393 21.26C101.92 21.26 100.758 20.87 99.9091 20.09C99.0597 19.31 98.6351 18.2613 98.6351 16.944C98.6351 15.54 99.1031 14.4567 100.039 13.694C100.975 12.9313 102.301 12.55 104.017 12.55H107.579V11.328C107.579 10.6347 107.354 10.0973 106.903 9.716C106.452 9.31733 105.837 9.118 105.057 9.118C104.346 9.118 103.757 9.274 103.289 9.586C102.821 9.898 102.544 10.3227 102.457 10.86H99.2851C99.4411 9.508 100.048 8.43333 101.105 7.636C102.162 6.83867 103.514 6.44 105.161 6.44C106.912 6.44 108.29 6.882 109.295 7.766C110.318 8.63267 110.829 9.81133 110.829 11.302V21H107.683V18.504H107.163L107.683 17.802C107.683 18.8593 107.293 19.7 106.513 20.324C105.733 20.948 104.693 21.26 103.393 21.26ZM104.459 18.816C105.378 18.816 106.123 18.582 106.695 18.114C107.284 17.646 107.579 17.0393 107.579 16.294V14.552H104.069C103.41 14.552 102.882 14.7427 102.483 15.124C102.084 15.5053 101.885 16.008 101.885 16.632C101.885 17.308 102.11 17.8453 102.561 18.244C103.029 18.6253 103.662 18.816 104.459 18.816ZM114.771 21V6.7H117.943V9.43H118.827L117.943 10.184C117.943 9.00533 118.281 8.08667 118.957 7.428C119.65 6.76933 120.595 6.44 121.791 6.44C123.195 6.44 124.313 6.908 125.145 7.844C125.994 8.78 126.419 10.0367 126.419 11.614V21H123.169V11.952C123.169 11.0853 122.944 10.418 122.493 9.95C122.042 9.482 121.41 9.248 120.595 9.248C119.798 9.248 119.165 9.49067 118.697 9.976C118.246 10.4613 118.021 11.1547 118.021 12.056V21H114.771ZM134.573 21.26C133.099 21.26 131.938 20.87 131.089 20.09C130.239 19.31 129.815 18.2613 129.815 16.944C129.815 15.54 130.283 14.4567 131.219 13.694C132.155 12.9313 133.481 12.55 135.197 12.55H138.759V11.328C138.759 10.6347 138.533 10.0973 138.083 9.716C137.632 9.31733 137.017 9.118 136.237 9.118C135.526 9.118 134.937 9.274 134.469 9.586C134.001 9.898 133.723 10.3227 133.637 10.86H130.465C130.621 9.508 131.227 8.43333 132.285 7.636C133.342 6.83867 134.694 6.44 136.341 6.44C138.091 6.44 139.469 6.882 140.475 7.766C141.497 8.63267 142.009 9.81133 142.009 11.302V21H138.863V18.504H138.343L138.863 17.802C138.863 18.8593 138.473 19.7 137.693 20.324C136.913 20.948 135.873 21.26 134.573 21.26ZM135.639 18.816C136.557 18.816 137.303 18.582 137.875 18.114C138.464 17.646 138.759 17.0393 138.759 16.294V14.552H135.249C134.59 14.552 134.061 14.7427 133.663 15.124C133.264 15.5053 133.065 16.008 133.065 16.632C133.065 17.308 133.29 17.8453 133.741 18.244C134.209 18.6253 134.841 18.816 135.639 18.816ZM145.301 21V6.7H147.953V8.624H148.499L148.057 9.092C148.057 8.29467 148.282 7.65333 148.733 7.168C149.183 6.68267 149.764 6.44 150.475 6.44C151.237 6.44 151.827 6.752 152.243 7.376C152.676 8 152.893 8.84067 152.893 9.898L152.321 8.624H153.205L152.867 9.092C152.867 8.29467 153.092 7.65333 153.543 7.168C153.993 6.68267 154.591 6.44 155.337 6.44C156.221 6.44 156.923 6.76933 157.443 7.428C157.963 8.08667 158.223 8.97933 158.223 10.106V21H155.363V10.236C155.363 9.768 155.259 9.404 155.051 9.144C154.843 8.86667 154.539 8.728 154.141 8.728C153.759 8.728 153.456 8.858 153.231 9.118C153.023 9.378 152.919 9.75067 152.919 10.236V21H150.579V10.236C150.579 9.75067 150.475 9.378 150.267 9.118C150.059 8.858 149.755 8.728 149.357 8.728C148.958 8.728 148.655 8.858 148.447 9.118C148.256 9.378 148.161 9.75067 148.161 10.236V21H145.301ZM167.338 21.26C165.518 21.26 164.088 20.7573 163.048 19.752C162.008 18.7293 161.488 17.3427 161.488 15.592V6.7H164.738V15.566C164.738 16.4847 164.964 17.1953 165.414 17.698C165.865 18.1833 166.506 18.426 167.338 18.426C168.153 18.426 168.786 18.1833 169.236 17.698C169.704 17.1953 169.938 16.4847 169.938 15.566V6.7H173.188V15.592C173.188 17.3427 172.66 18.7293 171.602 19.752C170.545 20.7573 169.124 21.26 167.338 21.26ZM177.572 21V6.7H180.64V9.43H181.446L180.484 11.094C180.484 9.55133 180.831 8.39 181.524 7.61C182.218 6.83 183.24 6.44 184.592 6.44C186.135 6.44 187.348 6.91667 188.232 7.87C189.116 8.82333 189.558 10.1407 189.558 11.822V12.862H186.152V12.056C186.152 11.1373 185.91 10.4267 185.424 9.924C184.956 9.42133 184.306 9.17 183.474 9.17C182.625 9.17 181.966 9.42133 181.498 9.924C181.048 10.4267 180.822 11.1373 180.822 12.056V21H177.572ZM196.932 21.26C195.459 21.26 194.297 20.87 193.448 20.09C192.599 19.31 192.174 18.2613 192.174 16.944C192.174 15.54 192.642 14.4567 193.578 13.694C194.514 12.9313 195.84 12.55 197.556 12.55H201.118V11.328C201.118 10.6347 200.893 10.0973 200.442 9.716C199.991 9.31733 199.376 9.118 198.596 9.118C197.885 9.118 197.296 9.274 196.828 9.586C196.36 9.898 196.083 10.3227 195.996 10.86H192.824C192.98 9.508 193.587 8.43333 194.644 7.636C195.701 6.83867 197.053 6.44 198.7 6.44C200.451 6.44 201.829 6.882 202.834 7.766C203.857 8.63267 204.368 9.81133 204.368 11.302V21H201.222V18.504H200.702L201.222 17.802C201.222 18.8593 200.832 19.7 200.052 20.324C199.272 20.948 198.232 21.26 196.932 21.26ZM197.998 18.816C198.917 18.816 199.662 18.582 200.234 18.114C200.823 17.646 201.118 17.0393 201.118 16.294V14.552H197.608C196.949 14.552 196.421 14.7427 196.022 15.124C195.623 15.5053 195.424 16.008 195.424 16.632C195.424 17.308 195.649 17.8453 196.1 18.244C196.568 18.6253 197.201 18.816 197.998 18.816ZM214.108 21.26C213.363 21.26 212.765 21.0433 212.314 20.61C211.881 20.1767 211.664 19.5873 211.664 18.842C211.664 18.0967 211.881 17.5073 212.314 17.074C212.765 16.6233 213.363 16.398 214.108 16.398C214.853 16.398 215.443 16.6233 215.876 17.074C216.327 17.5073 216.552 18.0967 216.552 18.842C216.552 19.5873 216.327 20.1767 215.876 20.61C215.443 21.0433 214.853 21.26 214.108 21.26Z" fill="white"/>
<path d="M69.6394 13.928V10.912H77.9594V13.928H69.6394Z" fill="#FF2E63"/>
</svg>
