{
	"asset":{
		"generator":"Khronos glTF Blender I/O v4.0.44",
		"version":"2.0"
	},
	"scene":0,
	"scenes":[
		{
			"name":"Scene",
			"nodes":[
				20,
				21,
				22,
				23,
				24,
				25,
				26,
				27,
				28,
				29,
				30,
				31,
				32,
				33,
				34,
				35,
				36,
				37
			]
		}
	],
	"nodes":[
		{
			"name":"amelia_37",
			"rotation":[
				0,
				0.41856175661087036,
				0,
				0.9081883430480957
			],
			"translation":[
				-0.1965329945087433,
				0.9014328718185425,
				0
			]
		},
		{
			"name":"isopod.001_48"
		},
		{
			"name":"isopod_47"
		},
		{
			"name":"spine.002_38",
			"rotation":[
				-4.263257092186959e-14,
				1.4210853021136109e-14,
				-3.5527018203392394e-15,
				1
			],
			"translation":[
				-6.532986228813958e-14,
				1.000002145767212,
				-2.8387921702233143e-07
			]
		},
		{
			"children":[
				3
			],
			"name":"spine.001_39",
			"rotation":[
				0.7071066498756409,
				-1.7225649173724378e-07,
				-1.0310110098998848e-07,
				0.70710688829422
			],
			"translation":[
				-1.1153885703506922e-13,
				0.8640913963317871,
				9.263057449970802e-07
			]
		},
		{
			"name":"Bone.003_40",
			"rotation":[
				-0.7071066498756409,
				2.009717296280831e-14,
				-0.70710688829422,
				8.631636760184555e-22
			],
			"translation":[
				-7.708082490429785e-14,
				0.6936964392662048,
				-2.923466581705725e-06
			]
		},
		{
			"name":"antenna_L_41",
			"rotation":[
				1.1793381382574353e-08,
				5.291906290949555e-08,
				-0.21752116084098816,
				0.9760556817054749
			],
			"scale":[
				0.9999999403953552,
				1,
				1
			],
			"translation":[
				0.26977092027664185,
				0.33400270342826843,
				-0.4395464360713959
			]
		},
		{
			"name":"antenna_R_42",
			"rotation":[
				1.1793399146142747e-08,
				-5.29191055420597e-08,
				0.21752116084098816,
				0.9760556817054749
			],
			"scale":[
				0.9999999403953552,
				1,
				1
			],
			"translation":[
				-0.26977092027664185,
				0.33400270342826843,
				-0.4395464360713959
			]
		},
		{
			"children":[
				6,
				7
			],
			"name":"head_43",
			"rotation":[
				-1.5253320384545077e-08,
				7.567239037806466e-15,
				8.881782502935358e-15,
				1
			],
			"translation":[
				2.879912020664621e-20,
				0.6936964392662048,
				-8.969086593424436e-07
			]
		},
		{
			"children":[
				5,
				8
			],
			"name":"spine_44",
			"rotation":[
				-0.7071065902709961,
				-3.45776527410635e-08,
				-3.457765629377718e-08,
				0.7071069478988647
			],
			"translation":[
				-1.0953181585468194e-13,
				0.8640913963317871,
				1.8799800045599113e-06
			]
		},
		{
			"name":"leg2_45",
			"rotation":[
				-0.06771594285964966,
				0.07447875291109085,
				-0.81098473072052,
				0.5763429403305054
			],
			"scale":[
				1.0000001192092896,
				1,
				0.9999998807907104
			],
			"translation":[
				2.243421590719663e-07,
				0.8640915155410767,
				3.787328751059249e-06
			]
		},
		{
			"name":"leg1_46",
			"rotation":[
				0.21930018067359924,
				-0.17450261116027832,
				-0.7465566396713257,
				0.6034148931503296
			],
			"scale":[
				0.9999999403953552,
				0.9999998807907104,
				0.9999998807907104
			],
			"translation":[
				4.588822264395276e-07,
				0.8640913963317871,
				4.741003067465499e-06
			]
		},
		{
			"children":[
				4,
				9,
				10,
				11
			],
			"name":"GLTF_created_1_rootJoint",
			"rotation":[
				-8.557135444675623e-09,
				4.89001870107586e-08,
				-8.36891262958147e-16,
				1
			],
			"translation":[
				0,
				-4.547473508864641e-13,
				9.536745437799254e-07
			]
		},
		{
			"children":[
				1,
				2,
				12
			],
			"name":"GLTF_created_1"
		},
		{
			"children":[
				13
			],
			"name":"isopod.002_49",
			"rotation":[
				0.70710688829422,
				0,
				0,
				0.7071066498756409
			],
			"scale":[
				0.0731188952922821,
				0.07311888784170151,
				0.07311888784170151
			],
			"translation":[
				0,
				0.864091694355011,
				0
			]
		},
		{
			"mesh":0,
			"name":"Object_4"
		},
		{
			"mesh":1,
			"name":"Object_5"
		},
		{
			"children":[
				15,
				16
			],
			"name":"pasokon_1"
		},
		{
			"children":[
				0,
				14,
				17
			],
			"name":"GLTF_SceneRootNode",
			"rotation":[
				0.70710688829422,
				0,
				0,
				0.7071066498756409
			]
		},
		{
			"children":[
				18
			],
			"name":"root"
		},
		{
			"children":[
				19
			],
			"name":"Sketchfab_model",
			"rotation":[
				0.7071065902709961,
				0,
				0,
				0.7071069478988647
			],
			"scale":[
				-1,
				-0.9999999403953552,
				-0.9999999403953552
			]
		},
		{
			"name":"Object_37",
			"rotation":[
				1,
				0,
				0,
				0
			],
			"scale":[
				-1,
				-1,
				-1
			]
		},
		{
			"name":"armies_21",
			"rotation":[
				1,
				0,
				0,
				0
			],
			"scale":[
				-1,
				-1,
				-1
			]
		},
		{
			"name":"armies.001_22",
			"rotation":[
				1,
				0,
				0,
				0
			],
			"scale":[
				-1,
				-1,
				-1
			]
		},
		{
			"name":"bode_23",
			"rotation":[
				1,
				0,
				0,
				0
			],
			"scale":[
				-1,
				-1,
				-1
			]
		},
		{
			"name":"bode.001_24",
			"rotation":[
				1,
				0,
				0,
				0
			],
			"scale":[
				-1,
				-1,
				-1
			]
		},
		{
			"name":"Cylinder.003_25",
			"rotation":[
				1,
				0,
				0,
				0
			],
			"scale":[
				-1,
				-1,
				-1
			]
		},
		{
			"name":"Cylinder.004_26",
			"rotation":[
				1,
				0,
				0,
				0
			],
			"scale":[
				-1,
				-1,
				-1
			]
		},
		{
			"name":"eyea_27",
			"rotation":[
				1,
				0,
				0,
				0
			],
			"scale":[
				-1,
				-1,
				-1
			]
		},
		{
			"name":"feets_28",
			"rotation":[
				1,
				0,
				0,
				0
			],
			"scale":[
				-1,
				-1,
				-1
			]
		},
		{
			"name":"feets.001_29",
			"rotation":[
				1,
				0,
				0,
				0
			],
			"scale":[
				-1,
				-1,
				-1
			]
		},
		{
			"name":"guitar_30",
			"rotation":[
				1,
				0,
				0,
				0
			],
			"scale":[
				-1,
				-1,
				-1
			]
		},
		{
			"name":"guitar.001_31",
			"rotation":[
				1,
				0,
				0,
				0
			],
			"scale":[
				-1,
				-1,
				-1
			]
		},
		{
			"name":"hair_32",
			"rotation":[
				1,
				0,
				0,
				0
			],
			"scale":[
				-1,
				-1,
				-1
			]
		},
		{
			"name":"hairoutline_33",
			"rotation":[
				1,
				0,
				0,
				0
			],
			"scale":[
				-1,
				-1,
				-1
			]
		},
		{
			"name":"mouf_34",
			"rotation":[
				1,
				0,
				0,
				0
			],
			"scale":[
				-1,
				-1,
				-1
			]
		},
		{
			"name":"nogging_35",
			"rotation":[
				1,
				0,
				0,
				0
			],
			"scale":[
				-1,
				-1,
				-1
			]
		},
		{
			"name":"nogging.001_36",
			"rotation":[
				1,
				0,
				0,
				0
			],
			"scale":[
				-1,
				-1,
				-1
			]
		}
	],
	"animations":[
		{
			"channels":[
				{
					"sampler":0,
					"target":{
						"node":12,
						"path":"translation"
					}
				},
				{
					"sampler":1,
					"target":{
						"node":12,
						"path":"rotation"
					}
				},
				{
					"sampler":2,
					"target":{
						"node":12,
						"path":"scale"
					}
				},
				{
					"sampler":3,
					"target":{
						"node":4,
						"path":"translation"
					}
				},
				{
					"sampler":4,
					"target":{
						"node":4,
						"path":"rotation"
					}
				},
				{
					"sampler":5,
					"target":{
						"node":4,
						"path":"scale"
					}
				},
				{
					"sampler":6,
					"target":{
						"node":3,
						"path":"translation"
					}
				},
				{
					"sampler":7,
					"target":{
						"node":3,
						"path":"rotation"
					}
				},
				{
					"sampler":8,
					"target":{
						"node":3,
						"path":"scale"
					}
				},
				{
					"sampler":9,
					"target":{
						"node":9,
						"path":"translation"
					}
				},
				{
					"sampler":10,
					"target":{
						"node":9,
						"path":"rotation"
					}
				},
				{
					"sampler":11,
					"target":{
						"node":9,
						"path":"scale"
					}
				},
				{
					"sampler":12,
					"target":{
						"node":5,
						"path":"translation"
					}
				},
				{
					"sampler":13,
					"target":{
						"node":5,
						"path":"rotation"
					}
				},
				{
					"sampler":14,
					"target":{
						"node":5,
						"path":"scale"
					}
				},
				{
					"sampler":15,
					"target":{
						"node":8,
						"path":"translation"
					}
				},
				{
					"sampler":16,
					"target":{
						"node":8,
						"path":"rotation"
					}
				},
				{
					"sampler":17,
					"target":{
						"node":8,
						"path":"scale"
					}
				},
				{
					"sampler":18,
					"target":{
						"node":6,
						"path":"translation"
					}
				},
				{
					"sampler":19,
					"target":{
						"node":6,
						"path":"rotation"
					}
				},
				{
					"sampler":20,
					"target":{
						"node":6,
						"path":"scale"
					}
				},
				{
					"sampler":21,
					"target":{
						"node":7,
						"path":"translation"
					}
				},
				{
					"sampler":22,
					"target":{
						"node":7,
						"path":"rotation"
					}
				},
				{
					"sampler":23,
					"target":{
						"node":7,
						"path":"scale"
					}
				},
				{
					"sampler":24,
					"target":{
						"node":10,
						"path":"translation"
					}
				},
				{
					"sampler":25,
					"target":{
						"node":10,
						"path":"rotation"
					}
				},
				{
					"sampler":26,
					"target":{
						"node":10,
						"path":"scale"
					}
				},
				{
					"sampler":27,
					"target":{
						"node":11,
						"path":"translation"
					}
				},
				{
					"sampler":28,
					"target":{
						"node":11,
						"path":"rotation"
					}
				},
				{
					"sampler":29,
					"target":{
						"node":11,
						"path":"scale"
					}
				}
			],
			"name":"Animation",
			"samplers":[
				{
					"input":8,
					"interpolation":"STEP",
					"output":9
				},
				{
					"input":8,
					"interpolation":"STEP",
					"output":10
				},
				{
					"input":8,
					"interpolation":"STEP",
					"output":11
				},
				{
					"input":8,
					"interpolation":"STEP",
					"output":12
				},
				{
					"input":13,
					"interpolation":"LINEAR",
					"output":14
				},
				{
					"input":8,
					"interpolation":"LINEAR",
					"output":15
				},
				{
					"input":8,
					"interpolation":"LINEAR",
					"output":16
				},
				{
					"input":13,
					"interpolation":"LINEAR",
					"output":17
				},
				{
					"input":8,
					"interpolation":"LINEAR",
					"output":18
				},
				{
					"input":8,
					"interpolation":"STEP",
					"output":19
				},
				{
					"input":13,
					"interpolation":"LINEAR",
					"output":20
				},
				{
					"input":8,
					"interpolation":"LINEAR",
					"output":21
				},
				{
					"input":8,
					"interpolation":"LINEAR",
					"output":22
				},
				{
					"input":8,
					"interpolation":"LINEAR",
					"output":23
				},
				{
					"input":8,
					"interpolation":"LINEAR",
					"output":24
				},
				{
					"input":8,
					"interpolation":"LINEAR",
					"output":25
				},
				{
					"input":13,
					"interpolation":"LINEAR",
					"output":26
				},
				{
					"input":8,
					"interpolation":"LINEAR",
					"output":27
				},
				{
					"input":8,
					"interpolation":"LINEAR",
					"output":28
				},
				{
					"input":13,
					"interpolation":"LINEAR",
					"output":29
				},
				{
					"input":8,
					"interpolation":"LINEAR",
					"output":30
				},
				{
					"input":8,
					"interpolation":"LINEAR",
					"output":31
				},
				{
					"input":13,
					"interpolation":"LINEAR",
					"output":32
				},
				{
					"input":8,
					"interpolation":"LINEAR",
					"output":33
				},
				{
					"input":8,
					"interpolation":"STEP",
					"output":34
				},
				{
					"input":13,
					"interpolation":"LINEAR",
					"output":35
				},
				{
					"input":8,
					"interpolation":"LINEAR",
					"output":36
				},
				{
					"input":8,
					"interpolation":"STEP",
					"output":37
				},
				{
					"input":13,
					"interpolation":"LINEAR",
					"output":38
				},
				{
					"input":8,
					"interpolation":"LINEAR",
					"output":39
				}
			]
		}
	],
	"materials":[
		{
			"emissiveFactor":[
				0.5643160939216614,
				0.5643160939216614,
				0.5643160939216614
			],
			"emissiveTexture":{
				"index":0
			},
			"name":"pasokon",
			"pbrMetallicRoughness":{
				"baseColorFactor":[
					0.5367652773857117,
					0.5367652773857117,
					0.5367652773857117,
					1
				],
				"baseColorTexture":{
					"index":1
				},
				"metallicFactor":0,
				"roughnessFactor":0
			}
		},
		{
			"emissiveFactor":[
				0.6251177787780762,
				0.6251177787780762,
				0.6251177787780762
			],
			"emissiveTexture":{
				"index":2
			},
			"name":"terrarium1",
			"pbrMetallicRoughness":{
				"baseColorFactor":[
					0.5063644051551819,
					0.5063644051551819,
					0.5063644051551819,
					1
				],
				"baseColorTexture":{
					"index":3
				},
				"metallicFactor":0
			}
		}
	],
	"meshes":[
		{
			"name":"Object_0",
			"primitives":[
				{
					"attributes":{
						"POSITION":0,
						"NORMAL":1,
						"TEXCOORD_0":2
					},
					"indices":3,
					"material":0
				}
			]
		},
		{
			"name":"Object_1",
			"primitives":[
				{
					"attributes":{
						"POSITION":4,
						"NORMAL":5,
						"TEXCOORD_0":6
					},
					"indices":7,
					"material":1
				}
			]
		}
	],
	"textures":[
		{
			"sampler":0,
			"source":0
		},
		{
			"sampler":0,
			"source":0
		},
		{
			"sampler":0,
			"source":1
		},
		{
			"sampler":0,
			"source":1
		}
	],
	"images":[
		{
			"mimeType":"image/png",
			"name":"pasokon_baseColor",
			"uri":"Textures/pasokon_baseColor.png"
		},
		{
			"mimeType":"image/png",
			"name":"terrarium1_baseColor",
			"uri":"Textures/terrarium1_baseColor.png"
		}
	],
	"skins":[
		{
			"inverseBindMatrices":40,
			"joints":[
				12,
				4,
				3,
				9,
				5,
				8,
				6,
				7,
				10,
				11
			],
			"name":"GLTF_created_1"
		}
	],
	"accessors":[
		{
			"bufferView":0,
			"componentType":5126,
			"count":6784,
			"max":[
				1.8186614513397217,
				2.2764387130737305,
				1.601987361907959
			],
			"min":[
				-1.215928316116333,
				-0.07248200476169586,
				-1.6160364151000977
			],
			"type":"VEC3"
		},
		{
			"bufferView":1,
			"componentType":5126,
			"count":6784,
			"type":"VEC3"
		},
		{
			"bufferView":2,
			"componentType":5126,
			"count":6784,
			"type":"VEC2"
		},
		{
			"bufferView":3,
			"componentType":5123,
			"count":17214,
			"type":"SCALAR"
		},
		{
			"bufferView":4,
			"componentType":5126,
			"count":14797,
			"max":[
				1.0126206874847412,
				2.0132369995117188,
				0.4165894389152527
			],
			"min":[
				-0.9624566435813904,
				0.6582717299461365,
				-1.1862610578536987
			],
			"type":"VEC3"
		},
		{
			"bufferView":5,
			"componentType":5126,
			"count":14797,
			"type":"VEC3"
		},
		{
			"bufferView":6,
			"componentType":5126,
			"count":14797,
			"type":"VEC2"
		},
		{
			"bufferView":7,
			"componentType":5123,
			"count":46707,
			"type":"SCALAR"
		},
		{
			"bufferView":8,
			"componentType":5126,
			"count":2,
			"max":[
				9
			],
			"min":[
				0
			],
			"type":"SCALAR"
		},
		{
			"bufferView":9,
			"componentType":5126,
			"count":2,
			"type":"VEC3"
		},
		{
			"bufferView":10,
			"componentType":5126,
			"count":2,
			"type":"VEC4"
		},
		{
			"bufferView":11,
			"componentType":5126,
			"count":2,
			"type":"VEC3"
		},
		{
			"bufferView":12,
			"componentType":5126,
			"count":2,
			"type":"VEC3"
		},
		{
			"bufferView":13,
			"componentType":5126,
			"count":217,
			"max":[
				9
			],
			"min":[
				0
			],
			"type":"SCALAR"
		},
		{
			"bufferView":14,
			"componentType":5126,
			"count":217,
			"type":"VEC4"
		},
		{
			"bufferView":15,
			"componentType":5126,
			"count":2,
			"type":"VEC3"
		},
		{
			"bufferView":16,
			"componentType":5126,
			"count":2,
			"type":"VEC3"
		},
		{
			"bufferView":17,
			"componentType":5126,
			"count":217,
			"type":"VEC4"
		},
		{
			"bufferView":18,
			"componentType":5126,
			"count":2,
			"type":"VEC3"
		},
		{
			"bufferView":19,
			"componentType":5126,
			"count":2,
			"type":"VEC3"
		},
		{
			"bufferView":20,
			"componentType":5126,
			"count":217,
			"type":"VEC4"
		},
		{
			"bufferView":21,
			"componentType":5126,
			"count":2,
			"type":"VEC3"
		},
		{
			"bufferView":22,
			"componentType":5126,
			"count":2,
			"type":"VEC3"
		},
		{
			"bufferView":23,
			"componentType":5126,
			"count":2,
			"type":"VEC4"
		},
		{
			"bufferView":24,
			"componentType":5126,
			"count":2,
			"type":"VEC3"
		},
		{
			"bufferView":25,
			"componentType":5126,
			"count":2,
			"type":"VEC3"
		},
		{
			"bufferView":26,
			"componentType":5126,
			"count":217,
			"type":"VEC4"
		},
		{
			"bufferView":27,
			"componentType":5126,
			"count":2,
			"type":"VEC3"
		},
		{
			"bufferView":28,
			"componentType":5126,
			"count":2,
			"type":"VEC3"
		},
		{
			"bufferView":29,
			"componentType":5126,
			"count":217,
			"type":"VEC4"
		},
		{
			"bufferView":30,
			"componentType":5126,
			"count":2,
			"type":"VEC3"
		},
		{
			"bufferView":31,
			"componentType":5126,
			"count":2,
			"type":"VEC3"
		},
		{
			"bufferView":32,
			"componentType":5126,
			"count":217,
			"type":"VEC4"
		},
		{
			"bufferView":33,
			"componentType":5126,
			"count":2,
			"type":"VEC3"
		},
		{
			"bufferView":34,
			"componentType":5126,
			"count":2,
			"type":"VEC3"
		},
		{
			"bufferView":35,
			"componentType":5126,
			"count":217,
			"type":"VEC4"
		},
		{
			"bufferView":36,
			"componentType":5126,
			"count":2,
			"type":"VEC3"
		},
		{
			"bufferView":37,
			"componentType":5126,
			"count":2,
			"type":"VEC3"
		},
		{
			"bufferView":38,
			"componentType":5126,
			"count":217,
			"type":"VEC4"
		},
		{
			"bufferView":39,
			"componentType":5126,
			"count":2,
			"type":"VEC3"
		},
		{
			"bufferView":40,
			"componentType":5126,
			"count":10,
			"type":"MAT4"
		}
	],
	"bufferViews":[
		{
			"buffer":0,
			"byteLength":81408,
			"byteOffset":0,
			"target":34962
		},
		{
			"buffer":0,
			"byteLength":81408,
			"byteOffset":81408,
			"target":34962
		},
		{
			"buffer":0,
			"byteLength":54272,
			"byteOffset":162816,
			"target":34962
		},
		{
			"buffer":0,
			"byteLength":34428,
			"byteOffset":217088,
			"target":34963
		},
		{
			"buffer":0,
			"byteLength":177564,
			"byteOffset":251516,
			"target":34962
		},
		{
			"buffer":0,
			"byteLength":177564,
			"byteOffset":429080,
			"target":34962
		},
		{
			"buffer":0,
			"byteLength":118376,
			"byteOffset":606644,
			"target":34962
		},
		{
			"buffer":0,
			"byteLength":93414,
			"byteOffset":725020,
			"target":34963
		},
		{
			"buffer":0,
			"byteLength":8,
			"byteOffset":818436
		},
		{
			"buffer":0,
			"byteLength":24,
			"byteOffset":818444
		},
		{
			"buffer":0,
			"byteLength":32,
			"byteOffset":818468
		},
		{
			"buffer":0,
			"byteLength":24,
			"byteOffset":818500
		},
		{
			"buffer":0,
			"byteLength":24,
			"byteOffset":818524
		},
		{
			"buffer":0,
			"byteLength":868,
			"byteOffset":818548
		},
		{
			"buffer":0,
			"byteLength":3472,
			"byteOffset":819416
		},
		{
			"buffer":0,
			"byteLength":24,
			"byteOffset":822888
		},
		{
			"buffer":0,
			"byteLength":24,
			"byteOffset":822912
		},
		{
			"buffer":0,
			"byteLength":3472,
			"byteOffset":822936
		},
		{
			"buffer":0,
			"byteLength":24,
			"byteOffset":826408
		},
		{
			"buffer":0,
			"byteLength":24,
			"byteOffset":826432
		},
		{
			"buffer":0,
			"byteLength":3472,
			"byteOffset":826456
		},
		{
			"buffer":0,
			"byteLength":24,
			"byteOffset":829928
		},
		{
			"buffer":0,
			"byteLength":24,
			"byteOffset":829952
		},
		{
			"buffer":0,
			"byteLength":32,
			"byteOffset":829976
		},
		{
			"buffer":0,
			"byteLength":24,
			"byteOffset":830008
		},
		{
			"buffer":0,
			"byteLength":24,
			"byteOffset":830032
		},
		{
			"buffer":0,
			"byteLength":3472,
			"byteOffset":830056
		},
		{
			"buffer":0,
			"byteLength":24,
			"byteOffset":833528
		},
		{
			"buffer":0,
			"byteLength":24,
			"byteOffset":833552
		},
		{
			"buffer":0,
			"byteLength":3472,
			"byteOffset":833576
		},
		{
			"buffer":0,
			"byteLength":24,
			"byteOffset":837048
		},
		{
			"buffer":0,
			"byteLength":24,
			"byteOffset":837072
		},
		{
			"buffer":0,
			"byteLength":3472,
			"byteOffset":837096
		},
		{
			"buffer":0,
			"byteLength":24,
			"byteOffset":840568
		},
		{
			"buffer":0,
			"byteLength":24,
			"byteOffset":840592
		},
		{
			"buffer":0,
			"byteLength":3472,
			"byteOffset":840616
		},
		{
			"buffer":0,
			"byteLength":24,
			"byteOffset":844088
		},
		{
			"buffer":0,
			"byteLength":24,
			"byteOffset":844112
		},
		{
			"buffer":0,
			"byteLength":3472,
			"byteOffset":844136
		},
		{
			"buffer":0,
			"byteLength":24,
			"byteOffset":847608
		},
		{
			"buffer":0,
			"byteLength":640,
			"byteOffset":847632
		}
	],
	"samplers":[
		{
			"magFilter":9728,
			"minFilter":9984
		}
	],
	"buffers":[
		{
			"byteLength":848272,
			"uri":"scene.bin"
		}
	]
}
